<?xml version="1.0" encoding="UTF-8" standalone="no"?>
<svg
   xmlns:dc="http://purl.org/dc/elements/1.1/"
   xmlns:cc="http://creativecommons.org/ns#"
   xmlns:rdf="http://www.w3.org/1999/02/22-rdf-syntax-ns#"
   xmlns:svg="http://www.w3.org/2000/svg"
   xmlns="http://www.w3.org/2000/svg"
   viewBox="0 0 1386.8 1018.836"
   height="1018.836"
   width="1386.8"
   xml:space="preserve"
   id="svg2"
   version="1.1"><metadata
     id="metadata8"><rdf:RDF><cc:Work
         rdf:about=""><dc:format>image/svg+xml</dc:format><dc:type
           rdf:resource="http://purl.org/dc/dcmitype/StillImage" /></cc:Work></rdf:RDF></metadata><defs
     id="defs6"><clipPath
       id="clipPath18"
       clipPathUnits="userSpaceOnUse"><path
         id="path16"
         d="M 0,764.127 H 1040.1 V 0 H 0 Z" /></clipPath></defs><g
     transform="matrix(1.3333333,0,0,-1.3333333,0,1018.836)"
     id="g10"><g
       id="g12"><g
         clip-path="url(#clipPath18)"
         id="g14"><g
           transform="translate(731.897,318.8083)"
           id="g20"><path
             id="path22"
             style="fill:#231f20;fill-opacity:1;fill-rule:nonzero;stroke:none"
             stroke-linejoin="round"
             stroke-linecap="round"
             d="m 0,0 c 41.435,0 72.217,31.572 72.217,73.007 0,41.045 -31.569,73.801 -72.217,73.801 -41.438,0 -72.22,-31.572 -72.22,-73.404 C -72.22,32.756 -40.648,0 0,0 m -121.944,73.404 c 0,64.325 52.485,119.97 121.944,119.97 61.564,0 109.708,-43.409 119.97,-98.264 h 57.223 V 50.908 H 119.97 C 109.314,-3.551 61.168,-46.567 0,-46.567 c -69.853,0 -121.944,55.249 -121.944,119.971 m -149.177,118.393 h 49.726 V 2.367 h 89.978 v -47.356 h -89.189 c -32.755,0 -50.515,17.758 -50.515,50.514 z M -354.389,95.11 c -2.369,13.811 -8.683,26.441 -17.76,35.517 -11.838,11.839 -29.203,19.338 -50.119,19.338 -20.916,0 -37.886,-7.105 -50.514,-19.732 -8.683,-8.682 -15.786,-20.522 -19.337,-35.123 z m -243.1,0 h 57.223 c 10.261,54.459 57.618,98.264 117.998,98.264 68.668,0 116.814,-48.937 116.814,-122.734 0,-7.892 -0.79,-14.207 -1.579,-19.732 h -184.691 c 8.681,-33.543 36.307,-53.275 69.456,-53.275 28.414,0 49.725,11.049 66.695,30.385 l 33.938,-31.175 c -22.494,-25.651 -56.039,-43.41 -100.633,-43.41 -60.38,0 -107.737,43.016 -117.998,97.475 h -57.223 z" /></g><g
           transform="translate(753.655,-13.01)"
           id="g24"><rect
             id="rect24"
             style="fill:#231f20;fill-opacity:1;fill-rule:nonzero;stroke:none"
             x="0"
             y="0"
             width="100.727"
             height="14.173"
             rx="7"
             ry="7" /></g></g></g></g></svg>